<?xml version="1.0" encoding="UTF-8"?>
<svg id="Layer_1" data-name="Layer 1" xmlns="http://www.w3.org/2000/svg" viewBox="0 0 595.28 278.66">
  <defs>
    <style>
      .cls-1, .cls-2 {
        fill: #262626;
      }

      .cls-3 {
        fill: #faa21f;
      }

      .cls-4 {
        fill: #fff;
      }

      .cls-2 {
        stroke: #262626;
        stroke-miterlimit: 10;
        stroke-width: 8px;
      }
    </style>
  </defs>
  <rect class="cls-1" width="595.28" height="278.66"/>
  <rect class="cls-3" x="211.9" y="28.48" width="337.12" height="214.33" rx="42.79" ry="42.79"/>
  <path class="cls-4" d="M84.42,153.1v75.45h-28.04V42.75h31.77c15.56,0,27.32,1.08,35.26,3.25,8.02,2.17,15.08,6.26,21.18,12.27,10.67,10.43,16.01,23.59,16.01,39.47,0,17.01-5.7,30.49-17.09,40.43-11.39,9.95-26.76,14.92-46.09,14.92h-13ZM84.42,127.11h10.47c25.75,0,38.63-9.91,38.63-29.72s-13.28-28.76-39.83-28.76h-9.27v58.48Z"/>
  <g>
    <path class="cls-2" d="M246.09,64.3h19.66v69.57c6.99-6.29,14.71-9.44,23.16-9.44,9.61,0,17.3,3.12,23.07,9.35,4.89,5.42,7.34,14.07,7.34,25.96v52.18h-19.66v-50.34c0-6.82-1.21-11.75-3.63-14.81-2.42-3.06-6.31-4.59-11.67-4.59-6.88,0-11.71,2.13-14.51,6.38-2.74,4.31-4.11,11.71-4.11,22.2v41.16h-19.66V64.3Z"/>
    <path class="cls-2" d="M363.9,126.79v48.85c0,14.1,5.56,21.15,16.69,21.15s16.69-7.05,16.69-21.15v-48.85h19.66v49.29c0,6.82-.85,12.7-2.53,17.65-1.63,4.43-4.46,8.42-8.48,11.97-6.64,5.77-15.09,8.65-25.34,8.65s-18.62-2.88-25.26-8.65c-4.08-3.55-6.96-7.54-8.65-11.97-1.63-3.96-2.45-9.85-2.45-17.65v-49.29h19.66Z"/>
    <path class="cls-2" d="M461.43,64.3v72.36c7.87-8.16,16.78-12.24,26.74-12.24,11.48,0,21.03,4.28,28.67,12.85,7.63,8.51,11.45,19.11,11.45,31.81s-3.85,23.95-11.54,32.51c-7.63,8.51-17.28,12.76-28.93,12.76-9.85,0-18.64-3.79-26.39-11.36v8.91h-19.66V64.3h19.66ZM508.19,169.96c0-8.16-2.21-14.8-6.64-19.93-4.49-5.24-10.11-7.87-16.87-7.87-7.22,0-13.11,2.53-17.65,7.6-4.49,5.01-6.73,11.54-6.73,19.58s2.21,14.89,6.64,19.84c4.43,5.07,10.25,7.6,17.48,7.6,6.82,0,12.47-2.53,16.95-7.6,4.54-5.13,6.82-11.54,6.82-19.23Z"/>
  </g>
</svg>