<?xml version="1.0" encoding="UTF-8"?>
<svg id="Layer_1" data-name="Layer 1" xmlns="http://www.w3.org/2000/svg" viewBox="0 0 595.28 278.66">
  <defs>
    <style>
      .cls-1 {
        fill: #faa21f;
      }

      .cls-2 {
        fill: #fff;
        stroke: #fff;
        stroke-width: 5px;
      }

      .cls-2, .cls-3 {
        stroke-miterlimit: 10;
      }

      .cls-3 {
        stroke: #000;
        stroke-width: 8px;
      }
    </style>
  </defs>
  <rect class="cls-1" x="161.61" width="433.67" height="278.66" rx="35.73" ry="35.73"/>
  <path class="cls-2" d="M55.67,154.41v65.23h-24.24V59.01h27.47c13.45,0,23.62.94,30.48,2.81,6.93,1.87,13.04,5.41,18.31,10.61,9.22,9.02,13.84,20.39,13.84,34.12,0,14.7-4.93,26.36-14.77,34.96-9.85,8.6-23.13,12.9-39.85,12.9h-11.24ZM55.67,131.94h9.05c22.26,0,33.4-8.57,33.4-25.7s-11.48-24.86-34.44-24.86h-8.01v50.56Z"/>
  <g>
    <path class="cls-3" d="M224.9,57.68h21.4v75.7c7.61-6.85,16.01-10.27,25.2-10.27,10.46,0,18.83,3.39,25.11,10.18,5.33,5.9,7.99,15.31,7.99,28.25v56.78h-21.4v-54.78c0-7.42-1.32-12.79-3.95-16.12-2.63-3.33-6.86-4.99-12.7-4.99-7.48,0-12.74,2.32-15.79,6.94-2.98,4.69-4.47,12.74-4.47,24.16v44.79h-21.4V57.68Z"/>
    <path class="cls-3" d="M353.1,125.68v53.16c0,15.34,6.05,23.01,18.16,23.01s18.16-7.67,18.16-23.01v-53.16h21.4v53.64c0,7.42-.92,13.82-2.76,19.21-1.78,4.82-4.85,9.16-9.23,13.03-7.23,6.28-16.42,9.42-27.58,9.42s-20.26-3.14-27.48-9.42c-4.44-3.87-7.58-8.21-9.42-13.03-1.78-4.31-2.66-10.71-2.66-19.21v-53.64h21.4Z"/>
    <path class="cls-3" d="M459.23,57.68v78.75c8.56-8.88,18.26-13.31,29.1-13.31,12.49,0,22.89,4.66,31.19,13.98,8.31,9.26,12.46,20.8,12.46,34.62s-4.18,26.06-12.55,35.38c-8.31,9.26-18.8,13.89-31.48,13.89-10.72,0-20.29-4.12-28.72-12.36v9.7h-21.4V57.68h21.4ZM510.11,172.66c0-8.88-2.41-16.1-7.23-21.68-4.88-5.71-11-8.56-18.35-8.56-7.86,0-14.27,2.76-19.21,8.27-4.88,5.45-7.32,12.55-7.32,21.3s2.41,16.2,7.23,21.59c4.82,5.52,11.16,8.27,19.02,8.27,7.42,0,13.57-2.76,18.45-8.27,4.95-5.58,7.42-12.55,7.42-20.92Z"/>
  </g>
</svg>